# xmcd CD database file
#
# Track frame offsets:
#	150
#	18942
#	37265
#	52597
#	74420
#	97190
#	112347
#	130792
#	154242
#	175412
#	193517
#
# Disc length: 2857 seconds
#
# Revision: 0
# Processed by: cddbd v1.5PL3 Copyright (c) Steve Scherf et al.
# Submitted via: CDex 1.40Release
#
DISCID=9b0b270b
DTITLE=ウルフルズ - トロフィー
DYEAR=1900
DGENRE=Rock
TTITLE0=ヤング ソウル ダイナマイト
TTITLE1=メゲメゲ2000
TTITLE2=ワルツ!
TTITLE3=夢
TTITLE4=このままでいよう
TTITLE5=ホンキーマン
TTITLE6=ユーレイ
TTITLE7=心
TTITLE8=A・A・P-FUNK〜DO-YA,みんな!〜
TTITLE9=いくつになっても
TTITLE10=小・中・高・大〜トロフィーをかかげよう〜
EXTD=ID3G: 17
EXTT0=
EXTT1=
EXTT2=
EXTT3=
EXTT4=
EXTT5=
EXTT6=
EXTT7=
EXTT8=
EXTT9=
EXTT10=
PLAYORDER=
